<svg width="39" height="39" viewBox="0 0 39 39" fill="none" xmlns="http://www.w3.org/2000/svg">
<circle cx="19.4476" cy="19.4476" r="19.4476" fill="#EBEBEB"/>
<path fill-rule="evenodd" clip-rule="evenodd" d="M14.9244 13.036C16.5491 12.0061 18.4775 11.8827 19.7593 12.0769L19.6276 12.9462C18.4915 12.7741 16.793 12.8925 15.3952 13.7786C14.0286 14.645 12.8793 16.2892 12.8793 19.3258C12.8793 23.1705 14.2028 24.7476 15.4996 25.42C16.6555 26.0194 17.869 25.9616 18.5223 25.9305C18.5886 25.9273 18.6492 25.9244 18.7034 25.9225C18.7477 25.8789 18.81 25.8072 18.8908 25.7009C19.0688 25.4668 19.298 25.1161 19.569 24.6664C20.109 23.7701 20.7897 22.5225 21.5185 21.128C22.9749 18.3412 24.61 14.9944 25.671 12.7624L26.4651 13.14C25.4014 15.3776 23.7611 18.7351 22.2977 21.5352C21.5666 22.9342 20.8762 24.2007 20.3221 25.1202C20.0461 25.5783 19.7976 25.9609 19.5907 26.2331C19.4883 26.3678 19.3861 26.4888 19.2877 26.5803C19.2386 26.626 19.1799 26.6742 19.1133 26.7133C19.0518 26.7494 18.9469 26.7995 18.8142 26.7995C18.7667 26.7995 18.696 26.8034 18.6056 26.8084C17.9971 26.8421 16.4929 26.9255 15.0948 26.2006C13.4241 25.3343 12 23.3944 12 19.3258C12 16.0318 13.2686 14.0857 14.9244 13.036Z" fill="black"/>
<path fill-rule="evenodd" clip-rule="evenodd" d="M20.6814 12.5767C20.9496 12.8784 21.1921 13.3162 21.4204 13.887C21.606 14.3508 22.163 16.0058 22.7801 17.839C22.9141 18.237 23.0509 18.6434 23.1873 19.0478C23.572 20.1881 23.956 21.3195 24.2711 22.2202C24.5921 23.1381 24.8284 23.7769 24.9225 23.9651C25.336 24.792 25.8807 25.2607 26.5076 25.2607C26.9964 25.2607 27.1748 25.0955 27.2094 25.0634C27.2168 25.0565 27.2176 25.0558 27.2135 25.0641L27.9999 25.4573C27.8298 25.7976 27.3207 26.14 26.5076 26.14C25.376 26.14 24.6018 25.2898 24.1361 24.3583C24.0103 24.1068 23.752 23.3993 23.4411 22.5105C23.1243 21.6047 22.7389 20.4692 22.3542 19.3289C22.2152 18.9168 22.0765 18.505 21.9414 18.1034C21.3241 16.2699 20.7795 14.652 20.6041 14.2135C20.3927 13.6852 20.1957 13.3536 20.0242 13.1608C19.8575 12.9732 19.0888 12.8791 19.0339 12.8791L19.6934 12.0719C20.0782 12.0719 20.4085 12.2696 20.6814 12.5767Z" fill="black"/>
</svg>
