<svg width="11" height="15" viewBox="0 0 11 15" fill="none" xmlns="http://www.w3.org/2000/svg">
<circle cx="5.5" cy="7.50391" r="5.5" fill="#E9852A"/>
<path d="M5.06396 2C5.39217 2.10299 5.71797 2.22156 6.02169 2.3851C6.3289 2.55052 6.60025 2.77678 6.8957 2.96108C7.26012 3.18839 7.58387 3.46667 7.90617 3.75053C8.30058 4.0979 8.58908 4.55177 8.81032 5.02555C8.95338 5.33191 9.06337 5.65578 9.1904 5.96905C9.36784 6.40661 9.40495 6.86361 9.42899 7.3328C9.44548 7.65446 9.41564 7.97807 9.37625 8.29723C9.29994 8.9156 9.18635 9.54668 8.99031 10.139C8.82308 10.6443 8.51442 11.1023 8.21007 11.5346C7.98059 11.8605 7.72729 12.1842 7.44656 12.468C7.25698 12.6597 7.06838 12.8462 6.89905 13.0566C6.82164 13.1527 6.74805 13.2452 6.66129 13.332" stroke="white" stroke-opacity="0.1" stroke-width="3" stroke-linecap="round"/>
<path d="M3.63232 2.34656C4.02357 2.47863 4.40096 2.64009 4.79349 2.76431C5.05245 2.84626 5.33067 2.91803 5.57038 3.04811C5.84257 3.19581 6.08426 3.40913 6.34142 3.58223C6.61222 3.7645 6.88023 3.94764 7.13674 4.14983C7.41655 4.37039 7.65198 4.64471 7.92787 4.87231C8.29046 5.17145 8.37062 5.64339 8.41761 6.08371C8.43238 6.22199 8.45129 6.35643 8.47789 6.49225C8.50893 6.65072 8.51179 6.81498 8.53984 6.97446C8.56846 7.13716 8.61888 7.29397 8.65035 7.45583C8.70448 7.73424 8.69515 8.01757 8.68719 8.29971C8.67998 8.55505 8.64885 8.76445 8.56412 9.00545C8.47091 9.27056 8.34064 9.5173 8.24516 9.78067C8.16153 10.0113 8.11647 10.2615 8.0074 10.4822C7.93225 10.6343 7.83995 10.7777 7.74453 10.9176C7.48765 11.294 7.22875 11.6565 6.92493 11.9967C6.64647 12.3085 6.3294 12.5131 5.96302 12.7074C5.80056 12.7936 5.66774 12.9246 5.5009 13.0004" stroke="white" stroke-opacity="0.1" stroke-width="0.5" stroke-linecap="round"/>
<path d="M6.0503 4.38232C5.88025 4.89805 5.70092 5.40368 5.43117 5.87693C5.35667 6.00763 5.27022 6.13375 5.2085 6.27122C5.07145 6.57646 4.97606 6.89386 4.82507 7.1934C4.78085 7.28113 4.46629 7.86789 4.53723 7.89942C4.58996 7.92286 4.6981 7.90241 4.75338 7.9016C5.03291 7.89749 5.31229 7.85781 5.58758 7.81253C5.8606 7.76762 6.19092 7.75763 6.44459 7.63656C6.51997 7.60059 6.60134 7.55392 6.68246 7.53229C6.74749 7.51495 6.47732 8.0702 6.46305 8.09494C6.3394 8.30941 6.18395 8.52225 6.09157 8.75317C5.91352 9.1983 5.70265 9.63037 5.47244 10.0512C5.29904 10.3681 5.14576 10.6931 4.97497 11.0103" stroke="white" stroke-opacity="0.1" stroke-width="0.5" stroke-linecap="round"/>
<path d="M6.08963 4.28455C5.93715 4.91142 5.82253 5.5781 5.57803 6.17887C5.52598 6.30678 5.44986 6.42197 5.37491 6.53731C5.1768 6.84222 4.96404 7.13445 4.78077 7.44863C4.74091 7.51696 4.6862 7.58105 4.64716 7.64741C4.61228 7.7067 4.78567 7.65645 4.85354 7.64523C5.18121 7.59107 5.5008 7.54965 5.83329 7.54965C6.17986 7.54965 6.5254 7.54975 6.87169 7.53444C6.97969 7.52967 7.02633 7.51179 6.97597 7.63003C6.87271 7.87246 6.68667 8.08352 6.54149 8.30129C6.24709 8.7429 5.9787 9.19357 5.72032 9.65687C5.47565 10.0956 5.21501 10.5245 4.95782 10.956C4.91704 11.0244 4.84379 11.2087 4.76013 11.2644" stroke="white" stroke-opacity="0.1" stroke-width="0.5" stroke-linecap="round"/>
<path d="M6.2848 4.06958C6.01561 4.95932 5.7815 5.87275 5.39847 6.72207C5.2368 7.08056 5.05931 7.43058 4.90099 7.79088C4.88587 7.8253 4.83766 7.87398 4.90316 7.84954C5.08597 7.78133 5.26244 7.69999 5.44843 7.63882C5.60648 7.58684 5.74182 7.58885 5.90681 7.58885C6.18968 7.58885 6.46625 7.59149 6.74752 7.61927C6.76088 7.62058 7.06889 7.6181 7.04297 7.66706C7.01501 7.71986 6.92912 7.76526 6.88873 7.81044C6.70407 8.01696 6.5486 8.25107 6.38691 8.47519C5.84949 9.22007 5.21365 9.88896 4.74023 10.678" stroke="white" stroke-opacity="0.1" stroke-width="0.5" stroke-linecap="round"/>
<path d="M6.36337 4.26501C6.18889 4.81914 6.04722 5.39561 5.83765 5.93775C5.62955 6.47608 5.30161 6.96575 4.99802 7.453C4.91177 7.59143 4.73635 7.7999 4.72321 7.97328C4.71536 8.07694 5.38715 7.96815 5.45965 7.95591C5.8108 7.89662 6.13795 7.80798 6.49588 7.78537C6.64031 7.77625 6.78705 7.77418 6.93036 7.7517C6.96911 7.74562 7.13333 7.68421 7.08026 7.77994C7.01714 7.89378 6.93232 8.0104 6.85976 8.11558C6.4164 8.7582 5.95558 9.38947 5.49333 10.0186C5.32856 10.2428 5.13821 10.4584 4.99476 10.6975" stroke="white" stroke-opacity="0.1" stroke-width="0.5" stroke-linecap="round"/>
<path d="M6.30435 4.14771C5.92839 5.0304 5.52681 5.90288 5.15516 6.78716C5.07134 6.98659 5.01082 7.19563 4.92705 7.39543C4.87887 7.51035 4.72528 7.72788 4.73806 7.85815C4.74137 7.89191 4.8319 7.87494 4.84233 7.87335C5.1375 7.82838 5.42789 7.77435 5.72649 7.75496C5.94691 7.74065 6.16751 7.72924 6.38799 7.71586C6.54854 7.70611 6.74172 7.71486 6.90176 7.67675C6.99516 7.65451 6.81668 7.85029 6.75838 7.92658C6.55909 8.18733 6.38213 8.45684 6.20551 8.73362C5.96504 9.11045 5.75316 9.49366 5.52989 9.87956C5.3685 10.1585 5.21553 10.465 5.01395 10.717" stroke="white" stroke-opacity="0.1" stroke-width="0.5" stroke-linecap="round"/>
<path d="M5.56152 3.11145C5.61106 3.88013 5.66644 4.64584 5.74183 5.41201C5.80437 6.04757 5.86934 6.67855 5.88412 7.3172C5.90291 8.129 5.83833 8.93691 5.89499 9.7481C5.92978 10.2463 6.00894 10.7453 6.01121 11.2449C6.01189 11.3939 5.99976 11.5479 6.01121 11.6967C6.02493 11.8751 6.02214 11.339 6.02641 11.1602C6.03564 10.7737 6.04814 10.3867 6.04814 10.0001C6.04814 9.04988 5.99956 8.10184 5.90476 7.15644C5.80047 6.11639 5.82814 5.06947 5.7288 4.02928C5.71484 3.88312 5.69838 3.73539 5.69838 3.58829C5.69838 3.5481 5.69838 3.66867 5.69838 3.70886C5.69838 4.86262 5.66581 6.02038 5.75269 7.17165C5.82914 8.18451 5.93859 9.197 6.00035 10.2108C6.02363 10.5931 6.02537 10.9791 6.06769 11.36C6.06995 11.3804 6.09613 11.5818 6.11114 11.6207C6.15273 11.7286 6.12843 11.3898 6.12743 11.2742C6.10843 9.0801 6.0068 6.8852 5.78745 4.70164C5.74289 4.25805 5.67883 3.81188 5.67883 3.36562" stroke="white" stroke-opacity="0.1" stroke-width="0.5" stroke-linecap="round"/>
<path d="M5.7179 3.20931C5.78943 4.86587 5.79333 6.52299 5.85585 8.17974C5.87954 8.80765 5.96037 9.44224 5.94383 10.0708C5.92764 10.6858 5.78852 12.5262 5.85042 11.9141C5.91264 11.2988 5.85602 10.657 5.83955 10.0415C5.80874 8.89006 5.72164 7.7424 5.59081 6.59824C5.53425 6.10355 5.46797 5.61294 5.45721 5.1145C5.44746 4.66282 5.45277 4.20841 5.46482 3.75675C5.47053 3.54242 5.53399 3.33948 5.58104 3.1311" stroke="white" stroke-opacity="0.1" stroke-width="0.5" stroke-linecap="round"/>
<path d="M5.58105 3.24841C5.67678 4.82648 5.77657 6.39565 5.77657 7.97553C5.77657 8.9996 5.71672 10.0224 5.71357 11.0462C5.71284 11.2825 5.73747 11.5173 5.73747 11.7533" stroke="white" stroke-opacity="0.1" stroke-width="0.5" stroke-linecap="round"/>
<path d="M5.60059 3.48303C5.73807 5.12745 5.89344 6.7728 5.91775 8.42305C5.93325 9.47505 5.96465 10.5257 5.99162 11.5774" stroke="white" stroke-opacity="0.1" stroke-width="0.5" stroke-linecap="round"/>
<path d="M4.70117 7.41281C5.15881 6.47711 5.66877 5.59506 6.32395 4.78639C6.3621 4.73929 6.41416 4.67277 6.45646 4.62563C6.50561 4.57087 6.62048 4.40433 6.62048 4.47791C6.62048 4.59662 6.52397 4.6951 6.46732 4.79942C6.30049 5.10668 6.1163 5.40343 5.93292 5.70096C5.58944 6.25823 5.2358 6.80888 4.92384 7.38456C4.87041 7.48316 4.84149 7.60529 4.75331 7.67458C4.74105 7.68421 4.7509 7.64277 4.75548 7.62787C4.78272 7.53925 4.87981 7.3099 4.91407 7.23684C5.02868 6.99239 5.29698 6.47804 5.39199 6.29402C5.77607 5.55015 6.14963 4.7988 6.55313 4.06515C6.64479 3.89851 6.71963 3.79866 6.85184 3.67847" stroke="white" stroke-opacity="0.1" stroke-width="0.5" stroke-linecap="round"/>
<path d="M6.67598 4.0304C6.13044 4.90601 5.54483 5.76239 5.08579 6.68723C4.92925 7.0026 4.76628 7.31591 4.60352 7.62787" stroke="white" stroke-opacity="0.1" stroke-width="0.5" stroke-linecap="round"/>
<path d="M6.63689 3.93262C6.19813 4.89026 5.7545 5.87286 5.12491 6.72414C4.91752 7.00456 4.75802 7.30995 4.58398 7.6083" stroke="white" stroke-opacity="0.1" stroke-width="0.5" stroke-linecap="round"/>
<path d="M6.79343 3.75671C6.4379 4.46182 6.08464 5.16505 5.64858 5.82483C5.49093 6.06336 5.31566 6.28922 5.15327 6.52434C4.89767 6.89441 4.65841 7.2794 4.4668 7.68657" stroke="white" stroke-opacity="0.1" stroke-width="0.5" stroke-linecap="round"/>
<path d="M4.23193 7.86255C5.23986 7.92238 6.29481 8.05079 7.30152 7.90165" stroke="white" stroke-opacity="0.1" stroke-width="0.5" stroke-linecap="round"/>
<path d="M4.93604 7.82347C5.92711 7.74711 6.92279 7.73801 7.90786 7.6084" stroke="white" stroke-opacity="0.1" stroke-width="0.5" stroke-linecap="round"/>
<path d="M4.79932 7.96029C5.36698 7.90479 5.93374 7.84952 6.50356 7.82125C6.74406 7.80932 6.99134 7.79389 7.23239 7.81365C7.42027 7.82905 7.60537 7.79257 7.7907 7.76477" stroke="white" stroke-opacity="0.1" stroke-width="0.5" stroke-linecap="round"/>
<path d="M4.70117 7.84299C5.38196 7.83056 6.05919 7.85944 6.73562 7.93749C6.81248 7.94636 6.89188 7.94074 6.96915 7.94074" stroke="white" stroke-opacity="0.1" stroke-width="0.5" stroke-linecap="round"/>
<path d="M7.2626 7.54968C6.50028 8.61694 5.7905 9.71326 4.99463 10.7561" stroke="white" stroke-opacity="0.1" stroke-width="0.5" stroke-linecap="round"/>
<path d="M7.10615 7.80383C6.25533 8.96769 5.36312 10.1056 4.56445 11.3036" stroke="white" stroke-opacity="0.1" stroke-width="0.5" stroke-linecap="round"/>
<path d="M6.81281 8.05798C6.10606 9.07382 5.38823 10.0818 4.65346 11.0776C4.62876 11.1111 4.289 11.5746 4.16902 11.7098C4.16426 11.7151 4.16084 11.6932 4.15381 11.6946" stroke="white" stroke-opacity="0.1" stroke-width="0.5" stroke-linecap="round"/>
<path d="M6.77402 7.99939C6.09652 8.86077 5.38144 9.70744 4.79932 10.6388" stroke="white" stroke-opacity="0.1" stroke-width="0.5" stroke-linecap="round"/>
<path d="M5.65916 3.32654C5.54857 4.28751 5.45779 5.24097 5.46365 6.2093C5.46591 6.58271 5.48178 6.95814 5.49623 7.33134C5.55382 8.81802 5.53517 10.3068 5.62006 11.7923" stroke="white" stroke-opacity="0.1" stroke-width="0.5" stroke-linecap="round"/>
<path d="M5.75692 3.56116C5.76594 5.77238 5.88493 7.99352 5.74714 10.2022C5.71744 10.6782 5.67871 11.1408 5.67871 11.6164" stroke="white" stroke-opacity="0.1" stroke-width="0.5" stroke-linecap="round"/>
<path d="M5.65918 3.42432C5.78224 6.09523 5.9126 8.76732 5.972 11.4404" stroke="white" stroke-opacity="0.1" stroke-width="0.5" stroke-linecap="round"/>
</svg>
