<svg width="39" height="39" viewBox="0 0 39 39" fill="none" xmlns="http://www.w3.org/2000/svg">
<circle cx="19.4476" cy="19.4476" r="19.4476" fill="#EBEBEB"/>
<path fill-rule="evenodd" clip-rule="evenodd" d="M15.2915 13.986C13.9933 13.986 12.9404 14.5023 12.4885 15.4061C11.4773 17.4288 12.0745 19.7673 13.5862 22.035C15.0905 24.2915 17.4315 26.3615 19.6431 27.7437L19.5063 28.9387C17.2044 27.5 14.3643 24.9798 12.7658 22.5819C11.1746 20.1951 10.3614 17.456 11.6066 14.9652C12.283 13.6122 13.7688 13 15.2915 13C16.8239 13 18.5036 13.6101 19.7305 14.8369L19.5063 16.1205C18.4764 15.0907 16.58 13.986 15.2915 13.986Z" fill="#2E2E2D"/>
<path fill-rule="evenodd" clip-rule="evenodd" d="M23.4721 13.986C24.7703 13.986 25.8233 14.5023 26.2751 15.4061C27.2863 17.4288 26.6892 19.7673 25.1775 22.035C23.6732 24.2915 21.3322 26.3615 19.1206 27.7437L19.5063 28.9387C21.8082 27.5 24.3994 24.9798 25.9979 22.5819C27.5891 20.1951 28.4023 17.456 27.1571 14.9652C26.4807 13.6122 24.9949 13 23.4721 13C21.9397 13 20.26 13.6101 19.0331 14.8369L19.5063 16.1205C20.5362 15.0907 22.1836 13.986 23.4721 13.986Z" fill="#2E2E2D"/>
</svg>
