<svg width="39" height="39" viewBox="0 0 39 39" fill="none" xmlns="http://www.w3.org/2000/svg">
<circle cx="19.4476" cy="19.4476" r="19.4476" fill="#EBEBEB"/>
<path d="M18.662 23.6221V22.9073C18.662 22.3133 18.7573 21.7911 18.9479 21.3407C19.1385 20.8838 19.3751 20.4758 19.6577 20.1168C19.9469 19.7513 20.2329 19.4054 20.5155 19.079C20.7981 18.7526 21.0347 18.423 21.2254 18.0901C21.4225 17.7507 21.5211 17.3786 21.5211 16.9739V15.6227C21.5211 14.9765 21.3371 14.4576 20.969 14.0659C20.6009 13.6678 20.1113 13.4687 19.5 13.4687C18.8887 13.4687 18.3991 13.6678 18.031 14.0659C17.6629 14.4576 17.4789 14.9765 17.4789 15.6227V16.1123H16V15.6227C16 14.5326 16.3188 13.658 16.9563 12.9987C17.6005 12.3329 18.4484 12 19.5 12C20.5582 12 21.4061 12.3329 22.0437 12.9987C22.6812 13.6645 23 14.5392 23 15.6227V16.9739C23 17.4504 22.9014 17.8877 22.7042 18.2859C22.5136 18.6775 22.277 19.0496 21.9944 19.4021C21.7117 19.7546 21.4258 20.1103 21.1366 20.4693C20.854 20.8218 20.6141 21.1971 20.4169 21.5953C20.2263 21.9935 20.131 22.4308 20.131 22.9073V23.6221H18.662ZM18.662 27V24.5522H20.1408V27H18.662Z" fill="black"/>
</svg>
