<svg width="16" height="16" viewBox="0 0 16 16" fill="none" xmlns="http://www.w3.org/2000/svg">
<path fill-rule="evenodd" clip-rule="evenodd" d="M14.5753 9.70565C15.0387 8.33605 15.0614 6.85564 14.64 5.47251C14.2187 4.08937 13.3745 2.87303 12.2261 1.99446L12.7515 1.30772C14.0434 2.29612 14.9931 3.66449 15.4672 5.22052C15.9412 6.77656 15.9157 8.44201 15.3943 9.98281C14.8729 11.5236 13.8818 12.8623 12.5603 13.8107C11.2387 14.7591 9.65323 15.2696 8.0266 15.2704C6.39997 15.2712 4.81398 14.7622 3.49155 13.8151C2.16912 12.8679 1.17672 11.5302 0.65385 9.98985C0.130977 8.44954 0.103913 6.78411 0.576458 5.22763C1.049 3.67114 1.9974 2.30186 3.28836 1.31223L3.81442 1.99847C2.6669 2.87814 1.82388 4.09528 1.40384 5.47882C0.983801 6.86236 1.00786 8.34274 1.47264 9.7119C1.93741 11.0811 2.81954 12.2702 3.99503 13.1121C5.17053 13.954 6.58029 14.4064 8.02619 14.4057C9.47208 14.405 10.8814 13.9513 12.0561 13.1082C13.2308 12.2652 14.1118 11.0753 14.5753 9.70565Z" fill="white"/>
<path fill-rule="evenodd" clip-rule="evenodd" d="M7.78491 5.40421V0H8.64959V5.40421H7.78491Z" fill="white"/>
</svg>
