<svg width="39" height="39" viewBox="0 0 39 39" fill="none" xmlns="http://www.w3.org/2000/svg">
<circle cx="19.4476" cy="19.4476" r="19.4476" fill="#EBEBEB"/>
<path fill-rule="evenodd" clip-rule="evenodd" d="M26.5141 12.9714H18.7427V23.6571H26.5141V12.9714ZM17.7712 12V24.6286H27.4855V12H17.7712Z" fill="black"/>
<path fill-rule="evenodd" clip-rule="evenodd" d="M10.9714 17.8285V18.6459H12.6327V17.8285H13.6041V19.6173H12.1681V25.9079C12.1681 26.0423 12.1929 26.6779 12.5899 27.2734C12.7704 27.5441 13.0356 27.7362 13.304 27.8618C13.5809 27.9913 13.8139 28.0285 13.8857 28.0285H22.1551C22.837 27.8631 23.5406 27.6763 24.1744 26.7772C24.3969 26.4616 24.4866 26.2316 24.531 25.893C24.5736 25.5675 24.5729 25.1597 24.5718 24.5034C24.5716 24.3908 24.5714 24.2709 24.5714 24.1428H25.5429C25.5429 24.2646 25.5431 24.3812 25.5434 24.493C25.5448 25.1389 25.5459 25.6244 25.4942 26.0192C25.4279 26.5253 25.2747 26.9025 24.9684 27.3369C24.1095 28.5553 23.0871 28.8026 22.3522 28.9803L22.271 28.9999H13.8857C13.6385 28.9999 13.2643 28.9157 12.8923 28.7416C12.5119 28.5637 12.0868 28.27 11.7816 27.8122C11.2292 26.9837 11.1967 26.1211 11.1967 25.9079V19.6173H10V17.8285H10.9714Z" fill="black"/>
</svg>
