<svg width="39" height="39" viewBox="0 0 39 39" fill="none" xmlns="http://www.w3.org/2000/svg">
<circle cx="19.4476" cy="19.4476" r="19.4476" fill="#EBEBEB"/>
<path d="M18.2405 22.6875L17.5745 22.1086L19.309 19.8118H17.375L20.0097 16.3125L20.6757 16.8914L19.1685 18.8923H21.0938L18.2405 22.6875Z" fill="#2E2E2D"/>
<path fill-rule="evenodd" clip-rule="evenodd" d="M23.5278 19.8465C23.525 19.2455 23.335 18.6603 22.9843 18.1722L23.2774 17.9615C23.6719 18.5105 23.8856 19.1688 23.8887 19.8449C23.8918 20.5209 23.6842 21.1812 23.2948 21.7338L22.9997 21.5258C23.346 21.0345 23.5305 20.4476 23.5278 19.8465Z" fill="#1D0F07"/>
<path fill-rule="evenodd" clip-rule="evenodd" d="M14.5272 19.835C14.53 19.2376 14.7188 18.6558 15.0675 18.1706L14.7761 17.9612C14.3839 18.5069 14.1715 19.1613 14.1684 19.8334C14.1653 20.5055 14.3716 21.1618 14.7588 21.7111L15.0521 21.5044C14.7079 21.016 14.5245 20.4325 14.5272 19.835Z" fill="#1D0F07"/>
<path fill-rule="evenodd" clip-rule="evenodd" d="M19.5 26.9375C23.6076 26.9375 26.9375 23.6076 26.9375 19.5C26.9375 15.3924 23.6076 12.0625 19.5 12.0625C15.3924 12.0625 12.0625 15.3924 12.0625 19.5C12.0625 23.6076 15.3924 26.9375 19.5 26.9375ZM19.5 28C24.1944 28 28 24.1944 28 19.5C28 14.8056 24.1944 11 19.5 11C14.8056 11 11 14.8056 11 19.5C11 24.1944 14.8056 28 19.5 28Z" fill="black"/>
</svg>
