<svg width="16" height="25" viewBox="0 0 16 25" fill="none" xmlns="http://www.w3.org/2000/svg">
<path d="M10.6853 12.8496C10.4651 12.7099 10.3693 12.2229 9.96913 12.5962C9.91635 12.6078 9.86725 12.6323 9.82618 12.6674C9.78511 12.7026 9.75335 12.7473 9.7337 12.7976L9.71132 12.8155L9.64508 12.8818L9.62717 12.9042C9.44833 13.0102 9.29687 13.1568 9.18495 13.332L9.17421 13.3392L9.09007 13.418L9.0847 13.4243C8.85374 13.5845 8.58966 13.7268 8.5834 14.0554C8.55923 15.3623 8.49388 16.6693 8.55117 17.9762C8.55117 18.9597 8.54908 19.9444 8.5449 20.9303C8.5449 21.2794 8.36587 21.6509 8.81346 21.915C9.28253 22.1916 9.35056 22.7744 9.01129 23.1852C8.93521 23.2788 8.84049 23.3556 8.73315 23.4106C8.62581 23.4655 8.5082 23.4976 8.3878 23.5047C8.2674 23.5117 8.14684 23.4937 8.0338 23.4516C7.92076 23.4096 7.8177 23.3445 7.73119 23.2604C7.6391 23.1783 7.56669 23.0764 7.51936 22.9624C7.47202 22.8484 7.45097 22.7253 7.45776 22.602C7.46456 22.4788 7.49902 22.3587 7.5586 22.2506C7.61818 22.1425 7.70134 22.0492 7.80191 21.9777C8.13581 21.7422 8.18773 21.4665 8.18146 21.1058C8.14655 18.8741 8.12775 16.6361 8.08926 14.4072C8.083 14.0625 8.13939 13.7671 8.3793 13.5174C8.85374 13.1396 9.23688 12.6732 9.64687 12.2328C9.77398 12.0976 9.81606 11.9732 9.65134 11.8228C9.42486 11.6151 9.21539 11.3886 8.99876 11.1702C8.94656 11.0479 8.85087 10.9494 8.73021 10.8936V10.8999C8.69888 10.8667 8.66755 10.8327 8.63532 10.7996L8.64516 10.8077L8.54849 10.7065L8.55386 10.711C8.46434 10.5525 8.35155 10.3869 8.16446 10.3887C7.41878 10.3968 6.67041 10.3073 5.92652 10.4371H5.91936C5.70272 10.549 5.79135 10.7531 5.79135 10.916C5.78329 12.6902 5.79135 14.4635 5.77881 16.2378C5.77881 16.5753 5.83073 16.8017 6.16463 16.996C6.40324 17.1418 6.57666 17.3738 6.64898 17.6439C6.7213 17.914 6.68698 18.2016 6.55314 18.4471C6.29891 18.9108 5.64991 19.1444 5.16114 18.9278C4.98064 18.8525 4.82413 18.7293 4.70849 18.5715C4.59286 18.4138 4.52249 18.2274 4.50498 18.0326C4.43874 17.5376 4.68402 17.1992 5.0582 16.9423C5.22291 16.8295 5.37867 16.7579 5.37778 16.5135C5.36823 14.5907 5.36524 12.6678 5.36882 10.745C5.36882 10.4764 5.25872 10.3699 4.99464 10.3744C4.44321 10.3851 3.89089 10.3968 3.34036 10.3744C3.02526 10.3636 2.79699 10.3824 2.60542 10.7092C2.35119 11.1425 1.65474 11.2302 1.29757 10.9455C0.92249 10.6474 0.832076 10.0262 1.11048 9.66899C1.50972 9.15695 1.95821 9.10145 2.44876 9.51144C2.58483 9.62513 2.69852 9.76657 2.83011 9.88742C2.84186 9.90198 2.85645 9.91401 2.87298 9.92279C2.88951 9.93158 2.90764 9.93692 2.92629 9.93851C2.94494 9.9401 2.96372 9.9379 2.98149 9.93204C2.99927 9.92618 3.01568 9.91679 3.02973 9.90442C3.08076 9.85608 3.04763 9.79879 3.02973 9.7415C2.8507 9.16322 2.03967 8.78546 1.4408 9.00388C0.794479 9.2402 0.439095 9.99931 0.691534 10.6036C1.09436 11.5686 2.1829 11.6661 2.92947 10.7987C3.08792 10.6134 3.29291 10.4048 3.51134 10.5096C3.76557 10.6313 3.50328 10.8775 3.50686 11.0708L3.51313 11.061L3.43435 11.1756C2.54544 12.1925 1.46497 12.3286 0.599331 11.5336C0.243334 11.2098 0.0290371 10.7589 0.00274 10.2783C-0.0235571 9.79776 0.140256 9.32616 0.458788 8.96538C1.08093 8.24924 2.25451 8.14719 3.00467 8.7398C3.12104 8.82932 3.22846 8.93495 3.33946 9.03252C3.44062 9.25453 3.59727 9.45326 3.59369 9.71733C3.59369 9.90174 3.69216 9.98588 3.87925 9.92949H5.04298H5.31153C5.4876 9.97561 5.67257 9.97561 5.84864 9.92949H7.90754C8.19758 9.96261 8.17072 9.75045 8.17162 9.5759C8.17609 8.66729 8.17162 7.75779 8.17162 6.84919C8.17162 6.67016 8.16088 6.48575 7.94514 6.41234C7.52351 6.27001 7.31852 5.95133 7.11084 5.5664C6.84228 5.08032 7.04549 4.306 7.50919 3.97836C8.02302 3.61403 8.77049 3.62029 9.21002 4.01328C9.74712 4.49667 10.0533 5.57267 9.03098 6.20019C8.70962 6.39713 8.55565 6.61645 8.57087 7.01748C8.60852 7.71712 8.59236 8.41862 8.52253 9.11578C8.41869 10.0011 8.8806 10.5364 9.50722 11.0144C9.67462 11.2123 9.83664 11.4137 10.0112 11.6053C10.141 11.7476 10.261 11.7297 10.3451 11.5489C10.8509 11.1013 11.3567 10.6456 11.7568 10.0915C11.8463 10.0101 11.8212 9.89995 11.8212 9.79969C11.8212 7.312 11.8212 4.8243 11.8212 2.33661C11.8199 2.11395 11.7327 1.90039 11.5778 1.74043C11.3146 1.4307 11.3352 1.05651 11.6091 0.823767C11.8624 0.60803 12.139 0.55969 12.421 0.781694C12.4906 0.832287 12.5486 0.897191 12.5911 0.972048C12.6336 1.04691 12.6596 1.12998 12.6673 1.21571C12.675 1.30143 12.6643 1.38781 12.6358 1.46905C12.6074 1.55028 12.5619 1.6245 12.5025 1.68672C12.2491 1.97944 12.2339 2.29006 12.2339 2.63739C12.2339 5.18446 12.2274 7.73153 12.2142 10.2786L12.1175 10.3905L12.0531 10.4594L11.9385 10.5695L11.8624 10.6394C11.4829 10.9876 11.1051 11.3376 10.7238 11.684C10.491 11.8944 10.4731 12.0815 10.7479 12.2802C10.9076 12.4101 11.0598 12.5491 11.2036 12.6965L11.3056 12.8003H11.3003C11.3501 12.9237 11.4466 13.0225 11.5688 13.0751V13.0689L11.6682 13.1647L11.6583 13.1575L11.7577 13.2551L11.7505 13.2461L11.8454 13.3455H11.84C12.1384 13.6767 12.4368 14.0076 12.7352 14.3382C12.9626 14.5916 13.1891 14.7428 13.5847 14.6426C14.0914 14.5146 14.5292 14.7554 14.7556 15.1797C14.8525 15.3408 14.8978 15.5277 14.8853 15.7152C14.8728 15.9028 14.8032 16.082 14.6858 16.2288C14.3349 16.7024 13.9079 16.8304 13.3959 16.6093C12.8838 16.3882 12.6672 15.9352 12.7934 15.3632C12.8426 15.143 12.9205 14.9443 12.7084 14.75C12.0952 14.1896 11.4936 13.6149 10.8876 13.0492V13.0545L10.7891 12.9588L10.799 12.9659L10.6853 12.8496Z" fill="#DC751A"/>
<path d="M6.65688 7.24658C5.3911 6.12403 5.44033 4.63356 5.94969 3.73033C6.68194 2.42964 7.91191 2.10022 9.33613 2.52363C10.541 2.8817 11.2393 4.22447 11.0253 5.5726C10.8964 6.38273 10.3853 6.92342 9.7882 7.41129C9.62349 7.47664 9.4534 7.53303 9.29406 7.60912C8.96643 7.76667 8.85632 7.63956 8.79455 7.30834C8.70504 6.82226 9.10518 6.75244 9.36568 6.56982C10.0496 6.0918 10.328 5.34433 10.1051 4.5324C9.90547 3.81 9.20991 3.27289 8.41231 3.22993C7.61471 3.18696 6.91021 3.66677 6.61212 4.4402C6.34356 5.12949 6.57094 5.95663 7.1725 6.45703C7.33184 6.58862 7.52162 6.68351 7.68543 6.8151C7.94414 7.01562 7.91281 7.29492 7.81792 7.55004C7.71676 7.81859 7.48939 7.64403 7.31393 7.63956L6.65688 7.24658Z" fill="#DC751A"/>
<path d="M12.668 13.6883C13.2051 13.4376 13.7717 13.4716 14.3348 13.5164C15.0035 13.5701 15.7796 14.2898 15.9282 15.031C16.1072 15.9119 15.9774 16.7426 15.2335 17.3433C14.5085 17.9287 13.6858 17.9699 12.8336 17.6396C12.3135 17.4355 12.0387 16.9879 11.7665 16.5412C11.5525 15.9786 11.5579 15.3561 11.7817 14.7974C11.8265 14.6792 11.8507 14.5109 12.0172 14.5073C12.164 14.5073 12.2383 14.6416 12.3251 14.7419C12.4388 14.8717 12.4048 15.0104 12.3717 15.1626C12.2902 15.5296 12.2553 15.8993 12.4084 16.2574C12.5497 16.5724 12.7926 16.8309 13.0982 16.9915C13.4038 17.1522 13.7544 17.2057 14.094 17.1436C14.4267 17.0844 14.729 16.9128 14.9504 16.6575C15.1718 16.4022 15.299 16.0786 15.3105 15.7409C15.3356 14.9728 14.8862 14.3713 14.1737 14.1815C13.872 14.1009 13.5846 14.1672 13.2892 14.1905C12.8694 14.2245 12.6474 14.0347 12.668 13.6883Z" fill="#DC751A"/>
<path d="M7.81009 17.6343C7.8052 17.6467 7.80395 17.6603 7.80648 17.6735C7.80902 17.6866 7.81524 17.6988 7.82442 17.7086L7.83605 17.9771C7.82979 18.0371 7.82263 18.0971 7.81636 18.1561C7.77459 18.328 7.73311 18.4999 7.69193 18.6718L7.69909 18.6619C7.68298 18.7022 7.66776 18.7416 7.65165 18.781C7.10022 19.9769 5.74313 20.3296 4.8963 20.0047C4.09064 19.6967 3.58129 19.122 3.43806 18.2868C3.28856 17.4123 3.58129 16.663 4.31444 16.1384C4.57762 15.9495 4.81842 15.6523 5.21588 15.7624C5.28391 16.1608 5.17201 16.432 4.80947 16.6898C4.13003 17.1732 3.97337 17.9538 4.32518 18.6163C4.45858 18.8758 4.66887 19.0878 4.92731 19.2234C5.18574 19.3589 5.47973 19.4114 5.76909 19.3736C6.31426 19.3163 6.90418 18.832 7.04651 18.3244C7.21122 17.7345 6.94804 17.0596 6.38677 16.6531C6.13612 16.4741 5.84966 16.2673 6.04839 15.937C6.22742 15.638 6.49598 15.9272 6.72425 15.9621L6.71171 15.9504L6.83077 16.022L7.4574 16.6415L7.52095 16.7624L7.50842 16.7498L7.6418 16.9942C7.6973 17.2073 7.7537 17.4203 7.81009 17.6343Z" fill="#DC751A"/>
<path d="M8.73119 20.9329C9.23249 20.8702 9.81077 21.3241 10.0552 21.9731C10.4249 22.9524 10.0095 23.9362 9.05703 24.3381C8.61304 24.5237 8.11426 24.5292 7.6663 24.3534C7.21835 24.1776 6.85639 23.8344 6.65707 23.3964C6.19426 22.392 6.74659 21.1889 7.8208 20.8568C8.135 21.1656 7.92553 21.3348 7.66146 21.513C7.41443 21.6808 7.22852 21.9242 7.13167 22.2067C7.03482 22.4892 7.03225 22.7955 7.12435 23.0795C7.30339 23.6319 7.72859 23.9246 8.34626 23.9192C8.94603 23.9138 9.40436 23.5934 9.56639 23.0652C9.75706 22.4466 9.56102 21.8702 9.00959 21.5157C8.7849 21.3697 8.65779 21.2086 8.73119 20.9329Z" fill="#DC751A"/>
<path d="M11.2159 2.3464C10.9303 2.04741 10.7218 1.70635 10.7173 1.28204C10.7195 1.01138 10.8079 0.74847 10.9697 0.531477C11.1314 0.314483 11.3582 0.154704 11.6169 0.075341C12.2203 -0.111751 12.7699 0.0547522 13.0823 0.517558C13.2447 0.752671 13.3267 1.03393 13.3162 1.31944C13.3057 1.60496 13.2033 1.87944 13.0242 2.10202C12.8827 2.27389 12.735 2.44397 12.5032 2.50395L12.4065 2.38221V2.37684C12.4351 2.10828 12.6356 1.93641 12.7592 1.72157C12.983 1.33038 12.9302 0.998267 12.5963 0.688536C12.4589 0.551021 12.2773 0.466586 12.0836 0.4502C11.8899 0.433815 11.6967 0.486536 11.5382 0.599018C11.1604 0.878313 11.0548 1.24086 11.2499 1.64548C11.3197 1.7905 11.429 1.91403 11.514 2.05368C11.599 2.19333 11.6832 2.34193 11.5552 2.45919C11.4272 2.57646 11.3412 2.36251 11.2159 2.3464Z" fill="#DC751A"/>
<path d="M10.6855 12.8495L10.7948 12.9569L10.6855 12.8495Z" fill="#DC751A"/>
<path d="M10.7817 12.9497L10.8802 13.0455L10.7817 12.9497Z" fill="#DC751A"/>
<path d="M11.6594 13.1619L11.5601 13.0662L11.6594 13.1619Z" fill="#DC751A"/>
<path d="M9.63965 12.8817L9.70589 12.8154L9.63965 12.8817Z" fill="#DC751A"/>
<path d="M11.8366 13.3428L11.7417 13.2434L11.8366 13.3428Z" fill="#DC751A"/>
<path d="M9.08472 13.4179L9.16886 13.3391L9.08472 13.4179Z" fill="#DC751A"/>
<path d="M3.43408 11.1755L3.50749 11.0654L3.43408 11.1755Z" fill="#DC751A"/>
<path d="M12.4067 2.38049L12.5034 2.50224L12.4067 2.38049Z" fill="#DC751A"/>
<path d="M8.63623 10.7996C8.66846 10.8327 8.69979 10.8667 8.73112 10.8998C8.69979 10.8667 8.66846 10.8327 8.63623 10.7996Z" fill="#DC751A"/>
<path d="M6.83048 16.0184L6.71143 15.9468L6.83048 16.0184Z" fill="#DC751A"/>
<path d="M8.54932 10.7064L8.64599 10.8076L8.54932 10.7064Z" fill="#DC751A"/>
<path d="M7.52197 16.7596L7.46289 16.6361L7.52197 16.7596Z" fill="#DC751A"/>
<path d="M11.8608 10.6384L11.9369 10.5686L11.8608 10.6384Z" fill="#DC751A"/>
<path d="M7.65137 18.7845C7.66748 18.7451 7.6827 18.7057 7.69881 18.6654C7.6827 18.7021 7.66748 18.7415 7.65137 18.7845Z" fill="#DC751A"/>
<path d="M12.0513 10.4593L12.1157 10.3904L12.0513 10.4593Z" fill="#DC751A"/>
<path d="M11.7485 13.2524L11.6492 13.1548L11.7485 13.2524Z" fill="#DC751A"/>
</svg>
