<svg width="44" height="39" viewBox="0 0 44 39" fill="none" xmlns="http://www.w3.org/2000/svg">
<path fill-rule="evenodd" clip-rule="evenodd" d="M14.1355 2.33309L17.3773 12.6791L15.4142 13.999C15.8062 14.9186 16.4263 16.1416 17.1065 17.358C17.983 18.9251 18.8915 20.36 19.4435 21.0267C20.0313 21.7367 21.2043 23.0288 22.5465 24.2784C23.7156 25.3667 24.9415 26.3545 25.9842 26.9267L28.0204 25.3996L37.8146 31.521L30.4117 36.5718L30.0959 36.5677C27.852 36.5382 24.9467 35.5536 22.0871 33.9519C19.2047 32.3375 16.2606 30.0362 13.9461 27.2499C11.4034 24.1887 9.25146 20.1272 7.8584 16.4492C7.16051 14.6066 6.64292 12.8338 6.36384 11.3045C6.09273 9.81887 6.01726 8.41423 6.34439 7.39672L6.45774 7.04414L14.1355 2.33309ZM8.17357 8.3378C8.08605 8.90311 8.11836 9.77832 8.33134 10.9454C8.58339 12.3265 9.06185 13.98 9.72874 15.7408C11.0652 19.2695 13.1178 23.1226 15.4846 25.972C17.6222 28.5453 20.3669 30.6961 23.0644 32.207C25.6323 33.6452 28.0622 34.4511 29.8169 34.5565L34.1584 31.5944L28.1233 27.8224L26.2277 29.2441L25.6942 29.012C24.2221 28.3714 22.5691 27.0318 21.1838 25.7422C19.7757 24.4314 18.5437 23.0761 17.9029 22.3021C17.2263 21.4848 16.2434 19.912 15.361 18.3342C14.4772 16.7539 13.6263 15.0473 13.2461 13.9408L12.9965 13.2145L15.0224 11.8524L12.9943 5.37982L8.17357 8.3378Z" fill="black"/>
</svg>
