<svg width="36" height="36" viewBox="0 0 36 36" fill="none" xmlns="http://www.w3.org/2000/svg">
<path fill-rule="evenodd" clip-rule="evenodd" d="M33.5126 21.9191C34.3282 18.6903 34.1175 15.2877 32.9099 12.1842L34.7738 11.459C36.1321 14.9498 36.3691 18.7772 35.4517 22.4089C34.5343 26.0406 32.5082 29.2963 29.655 31.7233L28.3591 30.1999C30.8957 28.0422 32.697 25.1478 33.5126 21.9191Z" fill="#E6740C"/>
<path fill-rule="evenodd" clip-rule="evenodd" d="M18.7153 2.01584C16.2794 1.90739 13.851 2.35698 11.6154 3.33026C9.37983 4.30354 7.39619 5.77478 5.81595 7.63166C4.23571 9.48853 3.10066 11.6819 2.49746 14.0444C1.89425 16.4069 1.83885 18.876 2.33547 21.2631C2.83209 23.6503 3.86761 25.8924 5.36297 27.8183C6.85832 29.7442 8.77397 31.3029 10.9637 32.3755C13.1533 33.4481 15.5592 34.0061 17.9974 34.0071L17.9967 36.0071C15.2537 36.006 12.5472 35.3782 10.0839 34.1716C7.62053 32.965 5.46548 31.2114 3.78325 29.0449C2.10101 26.8783 0.936082 24.356 0.377395 21.6705C-0.181293 18.985 -0.118964 16.2074 0.559624 13.5496C1.23821 10.8919 2.51511 8.42439 4.29284 6.33546C6.07057 4.24652 8.30211 2.59141 10.8171 1.4965C13.3321 0.401588 16.064 -0.104179 18.8043 0.0178163C21.5445 0.139811 24.2207 0.886342 26.6284 2.20041L25.6703 3.95597C23.53 2.78788 21.1512 2.12428 18.7153 2.01584Z" fill="#E6740C"/>
<path fill-rule="evenodd" clip-rule="evenodd" d="M20.9056 8.42538C18.9036 7.81737 16.7614 7.85197 14.7801 8.52433C12.7988 9.19669 11.078 10.473 9.8595 12.1739L8.23364 11.0092C9.69556 8.96843 11.7602 7.43711 14.1374 6.63041C16.5146 5.82371 19.0848 5.78219 21.4868 6.51169C23.8888 7.24119 26.0018 8.70503 27.5289 10.6975C29.0559 12.6899 29.9203 15.1108 30.0004 17.6198C30.0805 20.1289 29.3724 22.6 27.9756 24.6858C26.5788 26.7716 24.5635 28.3673 22.2129 29.2486C19.8623 30.1298 17.2947 30.2524 14.8709 29.599C12.4471 28.9457 10.289 27.5492 8.6998 25.6059L10.248 24.3398C11.5725 25.9595 13.3713 27.1234 15.3915 27.668C17.4116 28.2125 19.5517 28.1104 21.5108 27.3759C23.4699 26.6413 25.1496 25.3114 26.3138 23.5729C27.478 21.8345 28.0682 19.7749 28.0014 17.6837C27.9346 15.5925 27.2142 13.5747 25.9415 11.9141C24.6687 10.2535 22.9076 9.03339 20.9056 8.42538Z" fill="#E6740C"/>
</svg>
